<svg width="30" height="30" viewBox="0 0 30 30" fill="none" xmlns="http://www.w3.org/2000/svg">
<g clip-path="url(#clip0_29357_47037)">
<path d="M18.4381 2.03784L14.8159 0.0170898L11.1992 2.03784L14.8159 4.0586L18.4381 2.03784Z" fill="#AE24F6"/>
<path d="M13.4694 4.81719L9.84714 2.79077L6.23047 4.81719L9.84714 6.83794L13.4694 4.81719Z" fill="#32BDD2"/>
<path d="M11.2656 7.63037L14.8878 9.65113L18.5045 7.63037L14.8878 5.60962L11.2656 7.63037Z" fill="#32BDD2"/>
<path d="M4.88004 5.56982L1.25781 7.59058L4.88004 9.61133L8.4967 7.59058L4.88004 5.56982Z" fill="#32BDD2"/>
<path d="M19.8605 6.87183L23.4772 4.85108L19.8605 2.83032L16.2383 4.85108L19.8605 6.87183Z" fill="#AE24F6"/>
<path d="M24.8996 5.64355L21.2773 7.66431L24.8996 9.69072L28.5218 7.66431L24.8996 5.64355Z" fill="#32BDD2"/>
<path d="M16.3047 10.4436L19.9269 12.4644L23.5491 10.4436L19.9269 8.42285L16.3047 10.4436Z" fill="#AE24F6"/>
<path d="M10.9336 13.2171L14.9558 15.4643L18.978 13.2171L14.9558 10.97L10.9336 13.2171Z" fill="#32BDD2"/>
<path d="M9.9191 8.38306L6.29688 10.4038L9.9191 12.4246L13.5413 10.4038L9.9191 8.38306Z" fill="#AE24F6"/>
<path d="M0.550781 11.0945L14.8897 19.1039L29.223 11.0945" stroke="#8F8F8F" stroke-width="1.5" stroke-miterlimit="10"/>
<path d="M0.550781 15.8945L14.8897 23.8983L29.223 15.8945" stroke="#8F8F8F" stroke-width="1.5" stroke-miterlimit="10"/>
<path d="M0.550781 20.6946L14.8897 28.6984L29.223 20.6946" stroke="#8F8F8F" stroke-width="1.5" stroke-miterlimit="10"/>
</g>
<defs>
<clipPath id="clip0_29357_47037">
<rect width="30" height="30" fill="white"/>
</clipPath>
</defs>
</svg>
