<svg width="17" height="14" viewBox="0 0 17 14" fill="none" xmlns="http://www.w3.org/2000/svg">
<path fill-rule="evenodd" clip-rule="evenodd" d="M3.4074 4.47799L7.3527 0.524989C7.5435 0.336989 7.8278 0.282005 8.0745 0.385005C8.3212 0.488005 8.4823 0.729981 8.4837 0.997981V13.005C8.4813 13.273 8.3197 13.513 8.0733 13.615C7.8269 13.718 7.5432 13.663 7.3527 13.475L3.4074 9.522C3.3763 9.491 3.3339 9.47299 3.2896 9.47299H1.8306C1.0957 9.47299 0.5 8.876 0.5 8.139V5.86099C0.5 5.12399 1.0957 4.527 1.8306 4.527H3.2896C3.3338 4.527 3.3762 4.50999 3.4074 4.47799ZM11.2701 2.31698C11.5268 2.05998 11.9417 2.05599 12.2028 2.30899C13.4445 3.55299 14.1421 5.241 14.1421 7.001C14.1421 8.761 13.4445 10.449 12.2028 11.693C11.9417 11.946 11.5268 11.942 11.2701 11.685C11.0135 11.427 11.0099 11.011 11.262 10.75C12.2541 9.75599 12.8115 8.407 12.8115 7.001C12.8115 5.595 12.2541 4.24601 11.262 3.25201C11.0099 2.99101 11.0135 2.57498 11.2701 2.31698ZM13.8335 0.61999C13.5724 0.36699 13.1575 0.370986 12.9008 0.627986C12.6442 0.884986 12.6406 1.30198 12.8927 1.56298C15.8814 4.56798 15.8814 9.43201 12.8927 12.437C12.7198 12.604 12.6504 12.852 12.7113 13.085C12.7722 13.319 12.9538 13.501 13.1864 13.562C13.4191 13.623 13.6664 13.553 13.8335 13.38C17.3413 9.854 17.3413 4.14599 13.8335 0.61999ZM9.9309 3.82598C10.1606 3.76498 10.4055 3.83099 10.5734 3.99899C12.2201 5.65999 12.2198 8.34299 10.5728 10.003C10.4094 10.19 10.1563 10.27 9.9157 10.211C9.6752 10.152 9.4871 9.96499 9.4274 9.72399C9.3677 9.48299 9.4463 9.22899 9.6314 9.06399C10.763 7.92399 10.763 6.08198 9.6314 4.94198C9.4634 4.77298 9.398 4.52799 9.4598 4.29699C9.5216 4.06699 9.7012 3.88798 9.9309 3.82598Z" fill="#3A1251"/>
</svg>
